<?xml version="1.0" encoding="utf-8"?>
<!-- Generator: Adobe Illustrator 27.8.1, SVG Export Plug-In . SVG Version: 6.00 Build 0)  -->
<svg version="1.1" id="Layer_1" xmlns="http://www.w3.org/2000/svg" xmlns:xlink="http://www.w3.org/1999/xlink" x="0px" y="0px"
	 viewBox="0 0 512 512" style="enable-background:new 0 0 512 512;" xml:space="preserve">
<style type="text/css">
	.st0{fill:#8BC34A;}
	.st1{fill:#689F38;}
</style>
<g>
	<path class="st0" d="M128.51,396.61c0,0-29.4-178.96,166.18-178.96C422.52,217.65,512,319.92,512,319.92s-95.87,153.4-242.88,153.4
		C154.07,473.31,128.51,396.61,128.51,396.61z M179.64,179.3c0-77.98-76.7-153.4-76.7-153.4S9.62,80.87,0.67,192.08
		s74.14,136.78,74.14,136.78S179.64,291.79,179.64,179.3z"/>
	<path class="st1" d="M512,319.92c0,0-95.87,153.4-242.88,153.4c-76.7,0-113.77-34.51-130.39-57.52
		c-37.07,31.96-49.85,61.36-49.85,62.64c-1.28,5.11-6.39,7.67-11.5,7.67c-1.28,0-3.83,0-5.11-1.28c-6.39-2.56-8.95-10.23-6.39-16.62
		c1.28-3.83,33.24-74.14,130.39-120.16C336.87,273.9,512,319.92,512,319.92z M90.16,396.61c1.28,0,2.56,0,3.83-1.28
		c6.39-2.56,10.23-10.23,7.67-16.62c-6.39-19.17-11.5-37.07-14.06-56.25c28.12-12.78,92.04-54.97,92.04-143.17
		c0-77.98-76.7-153.4-76.7-153.4s-5.11,14.06-12.78,38.35c-2.56,6.39-66.47,173.85-11.5,323.41
		C79.93,392.78,85.04,396.61,90.16,396.61z"/>
</g>
</svg>
