<svg width="15" height="26" viewBox="0 0 15 26" fill="none" xmlns="http://www.w3.org/2000/svg">
<path d="M8.07466 11.4111C4.72986 10.5589 3.65422 9.67778 3.65422 8.30556C3.65422 6.73111 5.14244 5.63333 7.63261 5.63333C10.2554 5.63333 11.2279 6.86111 11.3163 8.66667H14.5727C14.4695 6.18222 12.9224 3.9 9.84283 3.16333V0H5.4224V3.12C2.56385 3.72667 0.265226 5.54667 0.265226 8.33444C0.265226 11.6711 3.07957 13.3322 7.19057 14.3C10.8743 15.1667 11.611 16.4378 11.611 17.7811C11.611 18.7778 10.889 20.3667 7.63261 20.3667C4.59725 20.3667 3.40373 19.0378 3.24165 17.3333H0C0.176817 20.4967 2.59332 22.2733 5.4224 22.8656V26H9.84283V22.8944C12.7161 22.36 15 20.7278 15 17.7667C15 13.6644 11.4194 12.2633 8.07466 11.4111Z" fill="black"/>
</svg>
